<svg xmlns="http://www.w3.org/2000/svg" xmlns:xlink="http://www.w3.org/1999/xlink" xmlns:svgjs="http://svgjs.com/svgjs" version="1.1" width="1714.9776763916018" height="1707.8999404907227"><g transform="scale(5) translate(30, 30)"> <defs id="SvgjsDefs9352"></defs><g xmlns:name="main_text" id="SvgjsG9353" rel="mainfill" name="main_text" transform="translate(50.631671053171175,-91.31500167846679)" fill="#ffffff" style="fill: #ffffff"><path d="M31.36 238.38L29.77 237.74C29.28 237.57 28.99 237.37 28.84 236.73L26.15 223.74C25.89 222.47 26.50 221.80 27.19 221.66L28.61 221.34C28.64 220.96 28.58 219.98 28.50 219.55L19.96 219.55L16.84 229.50L15.80 233.09L15.54 233.09L14.64 229.59L11.77 219.55L2.81 219.55C2.72 219.86 2.69 221.11 2.69 221.37L4.57 221.95C5.12 222.12 5.50 222.58 5.35 223.25L2.86 235.66C2.69 236.56 2.14 237.51 1.33 237.92L0.29 238.44C0.26 238.81 0.32 239.57 0.41 240L8.48 240C8.59 239.68 8.59 238.61 8.59 238.35L6.16 237.48C5.84 237.40 5.76 237.08 5.84 236.56L7.32 227.18L7.70 224.29L7.87 224.29L12.67 240.67L16.92 239.48L21.52 224.41L21.67 224.41L22.10 227.44L23.26 234.88C23.40 235.98 23.14 237.74 21.96 238.18L21.23 238.44C21.23 238.81 21.29 239.57 21.35 240L31.24 240C31.33 239.68 31.36 238.64 31.36 238.38ZM50.22 234.94L48.17 234.47C47.33 236.76 45.71 237.16 43.68 237.25L39.95 237.40L39.84 231.87L39.84 231.06L47.68 231.21L47.68 228.25L39.84 228.40L39.84 222.18L44.73 222.30C45.88 222.30 46.75 222.64 47.16 224.55C47.65 224.55 48.72 224.49 49.18 224.38L49.18 219.55L32.52 219.55C32.40 219.84 32.40 220.13 32.40 220.50C32.40 220.76 32.40 221.05 32.40 221.40L33.99 222.12C34.46 222.32 34.89 222.50 34.89 223.77L34.89 231.81L34.80 236.85C34.80 237.40 34.17 237.69 33.50 237.83L32.29 238.12C32.26 238.67 32.29 239.31 32.43 240L49.41 240ZM71.57 219.55L51.21 219.55L51.21 225.27C51.58 225.39 52.88 225.45 53.11 225.36C53.43 223.68 54.10 222.47 55.52 222.38L58.90 222.18L58.90 232.10L58.81 235.52C58.78 236.30 58.29 237.31 57.63 237.51L55.78 238.06C55.75 238.44 55.81 239.57 55.89 240L66.94 240C67.03 239.68 67.06 238.32 67.06 238.06L64.60 237.54C64.05 237.43 63.99 237.16 63.99 236.50L63.85 232.10L63.85 222.18L66.97 222.38C68.56 222.50 69.34 223.57 69.69 225.36C69.89 225.45 71.20 225.36 71.57 225.27ZM81.26 232.65L81.26 230.02L73.13 230.40L73.13 232.65ZM104.44 240.35L104.93 238.03C102.87 236.62 101.05 234.82 99.29 233.00L95.09 228.72L104.00 220.96L104.00 219.55L95.81 219.55C95.64 220.27 95.67 220.70 95.67 221.37L96.48 221.80C96.83 221.98 97.06 222.47 97.06 223.02C97.06 223.34 96.91 223.68 96.62 223.94L90.90 229.41L90.90 223.39C90.90 222.84 91.10 222.03 91.94 221.83L93.21 221.51C93.33 220.96 93.36 220.30 93.30 219.55L83.55 219.55C83.40 220.21 83.43 220.68 83.43 221.31L84.47 221.77C85.02 222.01 85.95 222.50 85.95 223.45L85.95 231.87L85.86 236.33C85.83 237.25 85.05 237.74 84.47 237.95L83.43 238.24C83.43 238.87 83.40 239.36 83.52 240L93.18 240C93.38 239.25 93.38 238.73 93.38 238.03L91.62 237.63C91.07 237.51 90.98 237.31 90.95 236.76L90.90 231.87L90.90 230.71L97.06 237.63C99.26 240.12 103.16 240.35 104.44 240.35ZM128.16 228.92C128.16 223.02 124.98 219.23 117.66 219.23C110.74 219.23 105.94 224.35 105.94 230.77C105.94 236.90 109.47 240.35 116.53 240.35C123.76 240.35 128.16 235.11 128.16 228.92ZM122.66 229.76C122.66 233.87 121.39 237.25 116.90 237.25C112.77 237.25 111.44 233.69 111.44 229.70C111.44 225.68 112.80 222.27 117.11 222.27C121.19 222.27 122.66 225.68 122.66 229.76ZM151.62 221.28C151.62 220.62 151.65 220.13 151.48 219.55L143.72 219.55C143.49 220.24 143.55 220.88 143.55 221.43L145.05 222.03C145.52 222.24 146.15 222.64 146.15 223.51C146.15 223.80 146.07 224.15 145.89 224.55L141.41 234.47L137.42 224.29C137.27 223.92 137.18 223.54 137.18 223.19C137.18 222.58 137.47 222.06 138.17 221.86C138.17 221.86 139.32 221.57 139.70 221.43C139.70 220.79 139.64 220.18 139.44 219.55L130.01 219.55C129.86 220.13 129.84 220.59 129.84 221.25L130.41 221.66C130.96 222.06 131.11 222.32 131.40 222.99L138.51 240.78L142.19 239.71L149.80 223.05C150.06 222.47 150.43 222.06 150.90 221.75ZM165.56 238.06C165.56 235.57 163.28 233.26 160.88 232.88C162.44 232.25 164.55 230.34 164.55 228.54C164.55 224.96 161.60 223.77 158.48 223.77C156.45 223.77 153.82 224.29 152.05 225.33L152.92 228.02C154.11 227.62 155.47 227.27 156.71 227.27C158.19 227.27 159.40 227.79 159.40 229.47C159.40 231.61 157.43 232.77 155.61 233.23L155.96 235.26C158.22 235.57 160.30 236.07 160.30 238.70C160.30 240.64 159.03 241.45 157.20 241.45C155.55 241.45 154.11 241.22 152.57 240.64L151.68 243.85C153.56 244.51 155.03 244.83 157.09 244.83C161.02 244.83 165.56 242.46 165.56 238.06ZM181.45 237.83C181.45 232.22 176.27 231.21 171.84 230.77L172.07 227.88L180.52 228.69L180.81 224.20L169.41 224.20L168.23 235.54C170.92 235.86 176.01 236.18 176.01 239.42C176.01 241.07 175.05 241.74 172.97 241.74C171.15 241.74 169.61 241.39 167.79 240.87L166.95 244.05C169.01 244.74 170.42 244.98 172.85 244.98C177.43 244.98 181.45 241.27 181.45 237.83Z" fill="#ffffff" style="fill: #ffffff"></path></g><g xmlns:name="outlineContainer_mainfill" id="SvgjsG9354" transform="translate(0.044444598257541656,0) scale(2.6)" rel="mainfill" name="outline_container" fill="#ffffff" style="fill: #ffffff"><g fill="#ffffff" style="fill: #ffffff"><path d="M103.2 75.8l-.7 1.4-.4.7-.4.7c-.5.9-1 1.8-1.6 2.7l-.5.7-.2.4-.2.3-1 1.4-1 1.3-.5.7-.6.6-1.3 1.5-.7.7-.7.7-1 1-.5.5-.5.5-1 .9-1.1.9-.7.6-.8.6-.8.6-.4.3-.4.3-1.4 1-1.5.9-.8.4-.8.4-.8.4-.4.2-.4.2-1.5.6-.7.2-.5.2 1.5-.9 3-2.1.7-.5h.3l.3-.3 1.2-1 1.5-1.5.7-.7.7-.8.4-.4.4-.5.8-.9a40 40 0 0 0 6.1-8.2V82l.3-.5.5-.9a34 34 0 0 0 3.3-6.6l.2-.4.4-.8.4-.8.2-.4.2-.4.8-1.8.2-.4v-.4l.3-.9.2-.6.2-.6.4-1.3.3-1.3.3-1.3a37.3 37.3 0 0 0 1.1-8.6v-.6-1.7-2.6c0-.3 0-.5-.1-.8l-.2-1.6v-1.2l-.2-1.1c-.1-.5-.2-1-.3-1.4l-.3-1.4-.4-1.4-.2-.7-.2-.7a28.5 28.5 0 0 0-1.3-3.9l-.8-1.9-.9-2c-.1.1.1.6.6 1.7l.6 1.4.3.7.3.7c.3 1 .7 2 1 3l.2.8v.7l.4 1.6.3 1.7V45c.1.6.2 1.3.2 2v1c0 .3.1.7.1 1V53.2c0 .5 0 .9-.1 1.4v3.8l-.2 1.7-.3 1.7-.2.9-.2.8-.2.8v.8l-.5 1.5-.3.7-.3.7-.4.9-.4.9-.4.9h-.1l.2-1.7c0-.1 0-.1-.1 0v.4l-.4 1-.2.6v.7l-.6 1.5v.4l-.2.4-.3.9-.9 2c-.7 1.3-1.5 2.5-2.4 3.7l-.6.8-.6.8-.9 1.4 1-1.1.5-.6.3-.3.3-.3.3-.4-1 1.7-.7 1.1-.7 1.1-1.5 2.1-2.8 3.6-.6.6-.5.4-.6.6-.5.4-.5.3-1 .7-.3.2-.3.2-.7.6-.8.6-.9.6-.7.5-.3.2-.4.2-1.4.9-.4.2-.4.2-.7.4-.7.4-.8.4-.8.4-.4.2-.4.2-1.7.7-1.7.6-.4.2h-.4l-.8.3-1.1.3-1 .3-1 .3-.8.2-1.4.2h-2l-1.6.2h1.8l-.8.2h-.8l-1.5.3-1.9.2h-6.8A51.5 51.5 0 0 1 40 103l-4.2-1.3-.9-.3-.9-.3-1.7-.7-1.7-.8-1.6-.8-.4-.2-.4-.2-.7-.4a20.2 20.2 0 0 1-3-1.8L23 95l-.8-.7-.8-.7-.5-.4-.5-.5-.9-.9-.2-.2-.2-.2-.4-.5-.9-1-.8-1-.8-1-.7-1-.4-.5-.2-.2-.2-.2-1-1.6-.7-1.2.3.4.6.6.6.6 1.3 1.2 1.3 1.2.3.3.3.3.6.5.7.6h.3l.3.3 1.4 1.1 1.4 1 1.1.8 1.1.8 1.2.7 1.3.7 1.3.7.3.2.3.2.7.3.7.3.7.3 1.4.6.7.3.7.3 1.5.5 1.5.4.8.2h.5a66.4 66.4 0 0 0 6.6 2.8l1.6.5 1.7.5 2.9.6 3.9.4h-.5l-1.4-.2h-1.2l-1.4-.3-1.4-.3-1.4-.3-1.4-.4-1.4-.5-1.3-.5-.6-.2-2.6-1.1 1.6.3h1.6l1.6.2h14.2l1.6-.2h1.6l1-.2a72.1 72.1 0 0 0 8.1-2.2l1.2-.4a65.8 65.8 0 0 0 8.2-3.9l1.5-.9 1.4-.9a20.3 20.3 0 0 0 2.4-1.8c1-.8 2-1.8 2.9-2.7a2.2 2.2 0 0 0 .5-.7l-.4.2-.4.3-.4.3-1.1.9-.5.5-.6.4-1.1.9-1.2.9-1.2.9-1.2.8-1.3.7-1.3.7-.5.3a48.2 48.2 0 0 1-9.4 3.7l-2.4.6h-1l-1.2.2h-2.2l-1.8.2h-3.7l1.5-.3.9-.2.9-.2 1.7-.4.9-.2.8-.3.8-.3.8-.3a49.5 49.5 0 0 0 6.7-2.9l.8-.4.4-.2.4-.2 1.6.2 3-2 .7-.5h.3l.3-.3 1.2-1 1.5-1.4.7-.7.7-.7.4-.4.4-.5.8-.9a43.6 43.6 0 0 0 6-7.8v-.5l.3-.5.7-.8a42.2 42.2 0 0 0 3.4-7.7c.4-1.3.7-2.7.9-3.9s0-.1 0 0v.4l-.4 1-.2.6v.7l-.5 1.5v.4l-.2.4-.3.9a49.3 49.3 0 0 1-4 7.8l-.7 1.1-.8 1.1-1.5 2.1-2.9 3.5-.6.6-.5.4-.6.6-.4.4-.5.4-1 .7-.3.2-.3.3-.7.6-.8.6-.9.6-.7.5-.4.2-.4.2-1.4.9-.4.2-.4.2-.7.4-.7.4-.8.4-.8.4-.4.2-.4.2-1.7.8-1.7.7-.4.2h-.4l-.8.3-1.1.3-1.1.3-1 .3-1 .3-1.5.4-1.5.3h-2.1l-1.5.2-1.9.2h-3.5l-1.5.3-2-.4-1.2-.3-1.2-.3H43l-.6-.2-1.2-.4-.6-.2-.6-.2-1.1-.4-.6-.2-.5-.2-1.1-.5-1.4-.8-.7-.4-.7-.4-1.4-.8-1.4-.8-.7-.4-.6-.4-1.3-.8-2.4-1.6-1-.7-.4-.4a50.1 50.1 0 0 1-4.8-5.9l-1.1-1.7h-.1v.2l1 1.2 1 1.2a26.9 26.9 0 0 0 2.3 2l.3.3.3.2.5.4.7.5.5.2-1.5-1.6-.2-.2-.2-.2-.4-.4-.8-.9-.2-.2-.2-.2-.4-.5-.8-.9-.8-1-.8-1-.5-.6-1.3-1.9-1.2-1.9v-.2l-.2-.6-.2-.6-.2-.6-.4-1.1-.2-.6-.2-.6-.6-1-.5-1.6-.2-.8-.2-.8-.4-1.6-.3-1.6-.2-.8v-.8l-.2-1.4-.4-2.8c-.3-3.1-.4-2.9-.5-.8v2.8c0 .3 0 .5.1.8v.8l.2 1.4c.4 2.1.9 4.3 1.5 6.4l-1-2.7c-.3-.9-.6-1.8-.8-2.7v-.7l-.2-.7-.2-.7-.2-.7c-.2-1-.4-1.9-.5-2.9l-.2-1.5-.2-1.5v-2.6-1.4-.7-.8a46.8 46.8 0 0 1 .6-6.3l.4-1.2.2-.7.3-.7.5-1.4.5-1.1.5-1.1.5-1.1.2-.5V35l.7-1.3.2-.4.2-.4.4-.7c.8-1.4 2-3 2.8-4l.4-.6.4-.6.9-1.1 1-1.1.5-.5.5-.5.9-.9 1-.9.5-.4.5-.4 1-.8.5-.4.5-.4 1.1-.8.6-.4.6-.4 1.2-.7a51.8 51.8 0 0 1 5.3-2.6l-4 2.7-1.3 1-.3.3-.3.3-.6.5-.6.5-.6.6-1.2 1.1a47.3 47.3 0 0 0-6 7.4L19 30.9l-1 1.9-.4.8-.6 1v.5l-.2.5-.8 1.2-.2.5-.2.5-.4 1.2-.3 1.1-.6 2.1-.3 1v1.1l-.2 1.1v1.2l-.3 1.5c-.1.5-.1 1-.2 1.5a26.8 26.8 0 0 0-.2 3V54a5.2 5.2 0 0 0 .1.9l.2.5c.1-.7.2-1.4.2-2.2v-4.6l.2-1.3.2-1.3v-.7c.2-.7.3-1.5.5-2.2s.4-1.5.7-2.2a46.9 46.9 0 0 1 4-8.7l1.8-2.4.2-.3.2-.3.4-.6.4-.6.4-.6 1.8-2.3 1-1.1 1-1.1.4-.5.5-.5 1-1 1.1-.9.5-.5.3-.2.3-.2a46.8 46.8 0 0 1 8.1-5.4l1.6-.8.6-.2 1.2-.3 1.2-.3 1.2-.3 1.2-.2 1.2-.2 1.2-.2.9-.2h7.4l1.5.2h3.6l1.4.2h.7l.7.2.7.2.7.2 3 .9.7.2.7.2 1.4.5.6.2.6.3.8.4.4.2.4.2 1.6.8 1.1.6.6.3.6.3 1.1.7.5.3.5.4a46.7 46.7 0 0 1 12.3 12.3l.2.2.9 2.1c.4 1.1.9 2.3 1.3 3.5a51.5 51.5 0 0 1 2 8.1l.2 1.7v10l.2-1v-.8c0-.3.1-.5.1-.8v-1.5-.7-2.3a46.8 46.8 0 0 0-.9-8.1 45.6 45.6 0 0 0-1.6-5.7 30.2 30.2 0 0 1 1.5 3.2c.4 1.1.9 2.3 1.3 3.5a55.5 55.5 0 0 1 2.1 8l.3 1.7v9.8l.4-.9V60c0-.3.1-.5.1-.8v-4.3a44.2 44.2 0 0 0-.8-8.1 45.3 45.3 0 0 0-2.7-8.6 49.3 49.3 0 0 0-4.3-8l-1.2-1.7-.8-1.1-.9-1.2-1-1.1-.2-.2H90l-1.2-1.7-.8-1.1-.9-1.2-.9-1.1-.5-.5-.5-.5-1-1-.5-.5-.5-.4-1-.9-1-.8-.5-.4-.3-.2-.3-.2-1-.8-.5-.4-.5-.4L77 12l.5.2.7.3.7.3 1.4.6 1.4.7.7.4.7.4 1.3.8 1.3.8.6.4.6.4.6.4.6.4 1.5 1.1a43.6 43.6 0 0 1 6 5.9l.5.5.5.6.6.8.6.8 1.8 2.2.8 1.2.7 1.2 1.1 2 1 1.8c.6 1 .7 1 .2-.3l-.4-1.1-.5-1.1-.4-1-.5-1-.6-1-.7-1a48 48 0 0 0-3.4-4.7 41.8 41.8 0 0 0-3.9-4l-1.3-1.1a48.1 48.1 0 0 0-11.5-7.6l-1.5-.7-1.5-.6-.8-.3-.8-.3-1.6-.6h-.5A61.3 61.3 0 0 0 65.3 6l-.6-.2H64l-3.4-.9 2.6.3 1.4.2 1.4.3 2.3.5 2 .5c1.1.2 1.2.2-.1-.3L69.1 6 68 5.3 67 5l-1.1-.3-1.2-.3-1.2-.2a48 48 0 0 0-5.7-.5h-14l-3.3.6h-.9l-.9.2-1.9.5-.9.3-.9.3-.8.3h-.8l-1.6.7-.4.2-.4.2-.8.4-1.1.5L28 9.2l-.5.3-.3.2-.3.2-1.1.7-.6.3-.6.4-1.1.7-.3.2-.3.2-.6.4-1.1.8-1.8 1.4-1.7 1.4a57.8 57.8 0 0 0-4.7 5.1l-1.1 1.4-.5.7-.5.7-.5.7-.5.8-.5.8-.2.4-.2.4-1 1.4-.8 1.6-.2.4-.2.4-.4.8-.4.8-.3.8-.4.9-.3.9-.6 1.9-.5 1.9-.2 1-.2 1c-.2.6-.2 1.3-.3 1.9L3 44c0 .3-.1.6-.1.9v4.7c0 .1.1.8.1 1.3s.2.4.4-1.7v-3.3l.2-1.3.2-1.3V42l.3-1.3.2-.7.2-.7.4-1.5.5-1.5.2-.7.3-.7.6-1.4.5-1.2.5-1.1.5-1.1.3-.5V29l.7-1.3.2-.4.2-.4.5-.7c.9-1.4 2.1-3 2.9-4.1l.4-.6.5-.5.9-1.1 1-1.1.5-.5.5-.5.9-.9 1-.9.5-.4.5-.4 1-.8.5-.4.5-.4 1.1-.8.6-.4.6-.4 1.2-.7A49.3 49.3 0 0 1 34.7 7l.6-.2.6-.2 1.2-.4 1.3-.3 1.3-.3 1.2-.2 1.2-.2 1.3-.2h3.7A48 48 0 0 0 37 7.8l-1.5.7-1.5.7-.7.4-.7.4-1.4.8-1.6 1-.8.5-.8.6a46.6 46.6 0 0 0-6.5 5.8l-.7.8-.7.8-1.5 1.7-1.3 1.7-1.2 1.8a50.8 50.8 0 0 0-3.2 5.7l-.4.7-.3.8-.6 1.5-.6 1.6v.2l-.2.4-.2.4-.4.8-.4.8-.3.8-.3.9-.3.9-.7 2-.5 2-.2 1-.2 1c-.1.6-.2 1.3-.3 1.9v.9c0 .3-.1.6-.1.9v4.2a5.1 5.1 0 0 0 0 .5c.1.5.2.8.3 1.3s.5.4.7-1.6v-1.2l.1-1.1v-1.3l.2-1.3.2-.8v5.1a47.2 47.2 0 0 0 1.6 9.4l.6 2 .7 2 .3.8.4 1.1v.6l.2.5.5 1.1.3.5.3.5.6 1.1.6 1 .8 1.2.4.9.5.9a40.4 40.4 0 0 0 2.8 4.4l.9 1.3.5.7.5.7 1 1.3.3.3.3.3.5.6 2.3 2.3 1.2 1.1.6.6.6.5.8.6a74 74 0 0 0 6.3 4.2L32 96l-.9-.3-.9-.4-1.7-.7-1.5-.8-1.6-.8-.4-.2-.4-.2-.7-.4a28.8 28.8 0 0 1-2.9-1.9l-1.6-1.2-.8-.7-.8-.7-.5-.4-.5-.5-.9-.9-.2-.2-.2-.2-.4-.5-.9-.9-.8-1-.8-1-.7-1h-.1l-.4-.7-.4-.8-.4-.8-.4-.8-.8-1.7c-.5-1.2-1-2.3-1.4-3.5l-.3-.9-.3-.9-.3-.9V69l-.4-1.8c-.1-.3-.1-.6-.2-1l-.2-1v-1.4l-.2-1.5c0-.2-.1-.5-.1-.7v-1.5c0-.2-.1-.5-.1-.7s-.3-2.4-.4-2.2l-.7 1.7c0 1.6.1 3.6.3 5.4a31 31 0 0 0 1.6 7l-.4-.8c-.5-1.2-1-2.3-1.3-3.5l-.3-.9-.3-.9-.3-.9v-.9l-.4-1.8c-.1-.3-.1-.6-.2-1l-.2-1v-1.3l-.2-1.5c0-.2-.1-.5-.1-.7v-1.5-.7c0-.2-.2-2.4-.2-2.2l-.4 1.7a52.9 52.9 0 0 0 .4 5.3 38.7 38.7 0 0 0 1.8 7.7L4 67.7l.3.7.3.7.4.9.2.5.2.5.9 1.8.9 1.8.2.4.3.4.5.9.2.4.9 1.9 1 1.8.3.5.3.4.5.9.2.4.3.4.5.8.5.8.5.7.5.7.5.7 1.1 1.4.6.7.6.6.6.6.6.6 1.3 1.4 1.3 1.2.3.3.3.3.7.5.7.6h.3l.4.3 1.4 1.1 1.5 1 1.1.8 1.1.8 1.2.8 1.3.8 1.3.7.3.2.3.2.7.3.7.3.7.3 1.4.6.7.3.7.3 1.5.6 1.6.5.8.2.8.2 1.6.4 1.6.3h13.8l2.9-.5.9-.2.9-.2 1.7-.5.9-.3.9-.3.9-.3.8-.3 4.5-1.9h.8l1.9-.6.4-.2.4-.2.8-.4.6-.3.6-.3 1.2-.6 1.2-.6 1.2-.6a37.2 37.2 0 0 0 7.2-4.8l.5-.4 1.3-1.1.6-.5.6-.6.6-.6.6-.6 1.1-1.2.4-.4.4-.4.7-.9.9-1.1.9-1.2.8-1.2.4-.6.4-.6a28.5 28.5 0 0 0 2-3.6l.9-1.8.9-2c-.1.3-.4.8-.8 1.8zm-29.6-65l.6.3.6.3 1.1.7.5.3.5.4a47.6 47.6 0 0 1 8.9 7.9l-.5-.4-.5-.4-.3-.2-.3-.2-1-.8-.5-.4-.5-.4-1.1-.8-.3-.2-.3-.2-.6-.4-1.2-.8-1-.5-1.2-.6-1.2-.6-.6-.3-.6-.3-1.2-.5h-.6l-.6-.3-1.2-.5-1.3-.5-.6-.2h-.7A49.4 49.4 0 0 0 58.1 9h-2.7l1.9-.2H67l.9.2 4.8 1.1zM17 25.6l.5-.8.5-.8 1.1-1.5.3-.4.4-.4.7-.8.2-.2h.2l.4-.4.8-.8 1.6-1.6.4-.4.4-.4.8-.7.7-.6.7-.6a48.4 48.4 0 0 1 8.4-5.4l.7-.4.7-.3 1.5-.8 1.4-.6.7-.3.7-.3 1.5-.5 1.5-.4.7-.2.7-.2.7-.2.7-.2 1.8-.4 4.3-.5h4.8l1.4.2h.7l.7.2.7.2.7.2L65 7l.7.2.7.2 1.4.5.6.2.6.3h.1a46.5 46.5 0 0 0-7.4-.8h-4.3l-2.2.2-2.2.4a54.9 54.9 0 0 0-5.4 1.1l-3.3.7h-.9l-.9.3-1.9.6-.9.3-.9.3-.8.3-.4.2h-.4l-1.6.7-.4.2-.4.2-.8.4-1.1.6-1.1.6-.5.3-.3.2-.3.2-1.1.7-.6.3-.5.4-1.1.7-.3.2-.3.2-.6.4-1.1.8-1.8 1.4-1.6 1.5a65.7 65.7 0 0 0-4.9 5.1l-1.1 1.4-.5.7-.5.7-.5.7a47.7 47.7 0 0 1 2.8-5zm16.8 70.2l-2-1.4-.5-.4-.5-.4-1-.7-.5-.4-.5-.4-.2-.2h.1l1.2.8a65 65 0 0 0 7.3 3.8l.9.4.5.2.5.2 1.9.7 1.9.6 1 .3h.1a51.1 51.1 0 0 1-7.3-1.4zM106.6 47l.2 1.3.2 1.3v.9c0 .3 0 .6.1.9V56.9c0 .4 0 1.6.2 1.1v-.5-1-2-1-1a28.5 28.5 0 0 0-.6-4.8l-.3-1.4v-.7l-.2-.7a2.2 2.2 0 0 0 0 .7zM88.5 16.3l-.7-.7-.7-.6-.7-.6-.4-.4-.4-.3a28.4 28.4 0 0 0-4.1-2.7l-1.3-.7-.3-.2-.3-.2-.7-.3.5.5 1.2.8 1.1.7 1.1.8.8.5.7.5 1.1.8.5.4.5.4 1.1.9 1 .9c1 .8 1.2 1 1 .6l-.3-.4z" fill="#ffffff" style="fill: #ffffff"></path><path d="M19.8 13.2l1-.6 1.7-1.2 2-1.5 2.1-1.3 2.1-1.3 2.1-1.1 1.8-.9 1.8-.8L38 3.1 41.9 2l1.9-.5 2-.3 2-.3 2-.2 4-.2c1.3-.1 2.7.1 4 .1h2l2 .3 2.4.4 1.2.2 1.1.3 3.4.9L73.2 4a66 66 0 0 1 6.3 2.6 34.2 34.2 0 0 1 3.3 1.8l1.6 1 1.6 1.1c1.1.9 2.3 1.6 3.3 2.6l3.1 2.8 3.6 3.9 3.2 4.2 2.4 3.8a17.6 17.6 0 0 1 1.1 1.9l1 1.9a10.2 10.2 0 0 0 .8 1.2c-.3-.7-.5-1.4-.9-2.1l-1.1-2.3-1.3-2a44 44 0 0 0-2.5-3.7l-1.4-1.8a16.8 16.8 0 0 0-1.4-1.9 52.6 52.6 0 0 0-21-15l-2.6-.9-2.7-.9c-1.6-.4-3.1-.9-4.8-1.2L60 .2 55.1 0c-1.7 0-3.3.1-4.9.2a55 55 0 0 0-18.9 5.2l-2.8 1.4-2.7 1.6a51.3 51.3 0 0 0-5 3.7c-.9.6-1.2 1.2-1 1.1zM31.1 102.6l-1.5-.8-.8-.4-.7-.4-2.4-1.4-1.2-.7-1.1-.8A56.6 56.6 0 0 1 7.2 80.2a61.5 61.5 0 0 1-5.6-15l-.9-5.1c-.2-1.7-.3-3.4-.4-5.2s-.2-.9-.3-.2 0 1.9 0 2.9a22 22 0 0 0 .2 3.2A55.4 55.4 0 0 0 9.5 85l1.7 2.2 1.1 1.4 1.2 1.3 2.4 2.6 2.6 2.4 1.3 1.1 1.4 1 2.8 2.2a56.8 56.8 0 0 0 6.8 3.8 7.8 7.8 0 0 0 2.2.8c.3 0-.5-.5-1.9-1.2zM89.3 95.3l-1.4 1.1-1.4 1.1a48.1 48.1 0 0 1-14.8 7.8 30.5 30.5 0 0 1-3.8 1.1 30.4 30.4 0 0 1-3.9.9l-4 .6-4 .2h-1.6c0 .1.2.2.8.2s3.5 0 5.3-.2l3.3-.5 1.7-.3 1.6-.4 3.3-.8 3.2-1.1a53.4 53.4 0 0 0 10.7-5.4c1-.6 1.9-1.4 2.8-2.1a27.4 27.4 0 0 0 2.7-2.2 9.9 9.9 0 0 0 2-2.2 12.1 12.1 0 0 0-2.5 2.2zM.3 54.3a5.9 5.9 0 0 0 .4-2.5l.2-3 .4-2.9c.2-1 .2-1.9.5-2.9l.7-2.9a52.5 52.5 0 0 1 1.9-5.9h.1l.3-.9.4-.9.8-1.8a5.7 5.7 0 0 0 .4-1.2c0-.1-.3.2-.5.6l-1.5 3c-.5 1.1-.9 2.3-1.4 3.6s-.5 1.2-.6 1.8l-.5 1.9c-.3 1.3-.7 2.5-.9 3.7l-.5 3.8v3.8c-.4 1.8-.3 2.8-.2 2.7zM108.7 53.4l-.2-1.6c-.1-.5-.2-1.1-.2-1a8.8 8.8 0 0 0-.1 1.5c0 .5 0 1.4.1 2a55.7 55.7 0 0 1-1.7 13.7l-.5 2c-.2.7-.5 1.3-.7 1.9l-1.2 3.2a9.6 9.6 0 0 0-.9 2.4c0 .3.4-.4 1-1.4s1.3-3.4 1.7-4.3a15.3 15.3 0 0 0 .7-2.1l.4-1.5c.2-1.1.5-2.1.7-3.2l.5-3.3.2-1.6c.1-.6.1-1.1.1-1.7l.2-3.3v-1.7z" fill="#ffffff" style="fill: #ffffff"></path></g></g> </g></svg>
